<?xml version="1.0" standalone="no"?>
<!DOCTYPE svg PUBLIC "-//W3C//DTD SVG 20010904//EN"
 "http://www.w3.org/TR/2001/REC-SVG-20010904/DTD/svg10.dtd">
<svg version="1.0" xmlns="http://www.w3.org/2000/svg"
 width="614.000000pt" height="576.000000pt" viewBox="0 0 614.000000 576.000000"
 preserveAspectRatio="xMidYMid meet">

<g transform="translate(0.000000,576.000000) scale(0.100000,-0.100000)"
fill="#000000" stroke="none">
<path d="M5490 5453 c-14 -2 -74 -11 -135 -19 -188 -26 -372 -62 -584 -115
-2049 -509 -3686 -2090 -4281 -4135 -58 -200 -160 -655 -160 -716 0 -8 729 -9
2592 -4 1426 4 2594 9 2595 10 3 3 63 4594 63 4817 l0 169 -32 -1 c-18 -1 -44
-3 -58 -6z"/>
</g>
</svg>
